<?xml version="1.0" standalone="no"?><svg xmlns="http://www.w3.org/2000/svg" viewBox="0 0 1440 320"><path fill="#582900" fill-opacity="1" d="M0,96L30,96C60,96,120,96,180,90.7C240,85,300,75,360,85.3C420,96,480,128,540,144C600,160,660,160,720,154.7C780,149,840,139,900,149.3C960,160,1020,192,1080,192C1140,192,1200,160,1260,128C1320,96,1380,64,1410,48L1440,32L1440,0L1410,0C1380,0,1320,0,1260,0C1200,0,1140,0,1080,0C1020,0,960,0,900,0C840,0,780,0,720,0C660,0,600,0,540,0C480,0,420,0,360,0C300,0,240,0,180,0C120,0,60,0,30,0L0,0Z"></path></svg>