<?xml version="1.0" standalone="no"?>
<svg xmlns="http://www.w3.org/2000/svg" viewBox="0 0 1440 320"><path fill="#1d0e00" fill-opacity="1" d="M0,96L30,96C60,96,120,96,180,90.7C240,85,300,75,360,85.3C420,96,480,128,540,144C600,160,660,160,720,154.7C780,149,840,139,900,149.3C960,160,1020,192,1080,192C1140,192,1200,160,1260,128C1320,96,1380,64,1410,48L1440,32L1440,320L1410,320C1380,320,1320,320,1260,320C1200,320,1140,320,1080,320C1020,320,960,320,900,320C840,320,780,320,720,320C660,320,600,320,540,320C480,320,420,320,360,320C300,320,240,320,180,320C120,320,60,320,30,320L0,320Z"></path></svg>